<svg width="25" height="25" viewBox="0 0 25 25" fill="none" xmlns="http://www.w3.org/2000/svg">
<g clip-path="url(#clip0_7_10188)">
<path d="M9.91016 22.48C10.4624 22.48 10.9102 22.0323 10.9102 21.48C10.9102 20.9277 10.4624 20.48 9.91016 20.48C9.35787 20.48 8.91016 20.9277 8.91016 21.48C8.91016 22.0323 9.35787 22.48 9.91016 22.48Z" stroke="#4A5568" stroke-width="1.5" stroke-linecap="round" stroke-linejoin="round"/>
<path d="M20.9102 22.48C21.4624 22.48 21.9102 22.0323 21.9102 21.48C21.9102 20.9277 21.4624 20.48 20.9102 20.48C20.3579 20.48 19.9102 20.9277 19.9102 21.48C19.9102 22.0323 20.3579 22.48 20.9102 22.48Z" stroke="#4A5568" stroke-width="1.5" stroke-linecap="round" stroke-linejoin="round"/>
<path d="M1.91016 1.47998H5.91016L8.59016 14.87C8.6816 15.3304 8.93206 15.7439 9.2977 16.0383C9.66334 16.3326 10.1209 16.489 10.5902 16.48H20.3102C20.7795 16.489 21.237 16.3326 21.6026 16.0383C21.9682 15.7439 22.2187 15.3304 22.3102 14.87L23.9102 6.47998H6.91016" stroke="#4A5568" stroke-width="1.5" stroke-linecap="round" stroke-linejoin="round"/>
</g>
<defs>
<clipPath id="clip0_7_10188">
<rect width="24" height="24" fill="white" transform="translate(0.910156 0.47998)"/>
</clipPath>
</defs>
</svg>
