<svg width="11" height="11" viewBox="0 0 11 11" fill="none" xmlns="http://www.w3.org/2000/svg">
<path d="M6.94727 5.54999L9.68164 8.31171C10.0371 8.63983 10.0371 9.18671 9.68164 9.51483L9.08008 10.1164C8.75195 10.4719 8.20508 10.4719 7.87695 10.1164L5.14258 7.38202L2.38086 10.1164C2.05273 10.4719 1.50586 10.4719 1.17773 10.1164L0.576172 9.51483C0.220703 9.18671 0.220703 8.63983 0.576172 8.31171L3.31055 5.54999L0.576172 2.81561C0.220703 2.48749 0.220703 1.94061 0.576172 1.61249L1.17773 1.01093C1.50586 0.655457 2.05273 0.655457 2.38086 1.01093L5.14258 3.7453L7.87695 1.01093C8.20508 0.655457 8.75195 0.655457 9.08008 1.01093L9.68164 1.61249C10.0371 1.94061 10.0371 2.48749 9.68164 2.81561L6.94727 5.54999Z" fill="#777777"/>
</svg>
