<svg width="20" height="14" viewBox="0 0 20 14" fill="none" xmlns="http://www.w3.org/2000/svg">
<path d="M10 0.541016C3.75 0.541016 1.25 7.00007 1.25 7.00007C1.25 7.00007 3.75 13.4577 10 13.4577C16.25 13.4577 18.75 7.00007 18.75 7.00007C18.75 7.00007 16.25 0.541016 10 0.541016V0.541016Z" stroke="#1A1A1A" stroke-linecap="round" stroke-linejoin="round"/>
<path d="M10 10.125C10.8288 10.125 11.6237 9.79576 12.2097 9.20971C12.7958 8.62366 13.125 7.8288 13.125 7C13.125 6.1712 12.7958 5.37634 12.2097 4.79029C11.6237 4.20424 10.8288 3.875 10 3.875C9.1712 3.875 8.37634 4.20424 7.79029 4.79029C7.20424 5.37634 6.875 6.1712 6.875 7C6.875 7.8288 7.20424 8.62366 7.79029 9.20971C8.37634 9.79576 9.1712 10.125 10 10.125V10.125Z" stroke="#1A1A1A" stroke-linecap="round" stroke-linejoin="round"/>
</svg>
