<svg width="25" height="25" viewBox="0 0 25 25" fill="none" xmlns="http://www.w3.org/2000/svg">
<g clip-path="url(#clip0_7_10183)">
<path d="M21.7503 5.08998C21.2395 4.57898 20.6331 4.17362 19.9656 3.89706C19.2982 3.6205 18.5828 3.47815 17.8603 3.47815C17.1378 3.47815 16.4224 3.6205 15.7549 3.89706C15.0875 4.17362 14.481 4.57898 13.9703 5.08998L12.9103 6.14998L11.8503 5.08998C10.8186 4.05828 9.41931 3.47868 7.96028 3.47868C6.50124 3.47868 5.10197 4.05828 4.07028 5.08998C3.03858 6.12167 2.45898 7.52094 2.45898 8.97997C2.45898 10.439 3.03858 11.8383 4.07028 12.87L5.13027 13.93L12.9103 21.71L20.6903 13.93L21.7503 12.87C22.2613 12.3592 22.6666 11.7528 22.9432 11.0853C23.2198 10.4179 23.3621 9.70246 23.3621 8.97997C23.3621 8.25749 23.2198 7.54208 22.9432 6.87462C22.6666 6.20716 22.2613 5.60073 21.7503 5.08998Z" stroke="#4A5568" stroke-width="1.5" stroke-linecap="round" stroke-linejoin="round"/>
</g>
<defs>
<clipPath id="clip0_7_10183">
<rect width="24" height="24" fill="white" transform="translate(0.910156 0.47998)"/>
</clipPath>
</defs>
</svg>
