<svg width="25" height="25" viewBox="0 0 25 25" fill="none" xmlns="http://www.w3.org/2000/svg">
<g clip-path="url(#clip0_7_10176)">
<path d="M15.86 5.47998C16.8367 5.67055 17.7344 6.14824 18.4381 6.85192C19.1417 7.55559 19.6194 8.45325 19.81 9.42998M15.86 1.47998C17.8893 1.70542 19.7816 2.61416 21.2262 4.05699C22.6709 5.49982 23.582 7.39099 23.81 9.41998M22.81 17.4V20.4C22.8111 20.6785 22.7541 20.9541 22.6425 21.2093C22.5309 21.4645 22.3673 21.6936 22.1621 21.8818C21.9568 22.0701 21.7146 22.2135 21.4507 22.3027C21.1869 22.3919 20.9074 22.425 20.63 22.4C17.5528 22.0656 14.597 21.0141 12 19.33C9.58382 17.7946 7.53533 15.7462 5.99999 13.33C4.30997 10.7212 3.25823 7.75097 2.92999 4.65998C2.905 4.38345 2.93787 4.10474 3.02649 3.8416C3.11512 3.57847 3.25756 3.33667 3.44476 3.1316C3.63195 2.92653 3.8598 2.76269 4.11378 2.6505C4.36777 2.53832 4.64233 2.48024 4.91999 2.47998H7.91999C8.4053 2.4752 8.87578 2.64706 9.24375 2.96351C9.61172 3.27997 9.85207 3.71943 9.91999 4.19998C10.0466 5.16005 10.2814 6.10271 10.62 7.00998C10.7545 7.3679 10.7837 7.7569 10.7039 8.13086C10.6241 8.50483 10.4389 8.84809 10.17 9.11998L8.89999 10.39C10.3235 12.8935 12.3964 14.9664 14.9 16.39L16.17 15.12C16.4419 14.8511 16.7851 14.6658 17.1591 14.5861C17.5331 14.5063 17.9221 14.5354 18.28 14.67C19.1873 15.0085 20.1299 15.2434 21.09 15.37C21.5758 15.4385 22.0194 15.6832 22.3365 16.0575C22.6537 16.4318 22.8222 16.9096 22.81 17.4Z" stroke="#222222" stroke-width="1.5" stroke-linecap="round" stroke-linejoin="round"/>
</g>
<defs>
<clipPath id="clip0_7_10176">
<rect width="24" height="24" fill="white" transform="translate(0.810547 0.47998)"/>
</clipPath>
</defs>
</svg>
